# xmcd CD database file
#
# Track frame offsets:
#	150
#	33393
#	64411
#	89470
#	112003
#	143722
#	160394
#	179996
#	214622
#
# Disc length: 3218 seconds
#
# Revision: 0
# Processed by: cddbd v1.5.2PL0 Copyright (c) Steve Scherf et al.
# Submitted via: CDex 1.70beta2
#
DISCID=890c9009
DTITLE=Philip Glass - Liquid Times [CD 2]
DYEAR=2011
DGENRE=Jazz
TTITLE0=Metamorphosis two
TTITLE1=Wichita sutra vortex
TTITLE2=Metamorphosis three
TTITLE3=Dance VIII
TTITLE4=Metamorphosis four
TTITLE5=Bed (from "Einstein on the Beach")
TTITLE6=Protest (from "Satyagraha")
TTITLE7=Islands
TTITLE8=Closing
EXTD=YEAR: 2011
EXTT0=
EXTT1=
EXTT2=
EXTT3=
EXTT4=
EXTT5=
EXTT6=
EXTT7=
EXTT8=
PLAYORDER=
